<?xml version="1.0" encoding="UTF-8" standalone="no"?>
<svg
   xmlns:dc="http://purl.org/dc/elements/1.1/"
   xmlns:cc="http://creativecommons.org/ns#"
   xmlns:rdf="http://www.w3.org/1999/02/22-rdf-syntax-ns#"
   xmlns:svg="http://www.w3.org/2000/svg"
   xmlns="http://www.w3.org/2000/svg"
   xmlns:sodipodi="http://sodipodi.sourceforge.net/DTD/sodipodi-0.dtd"
   xmlns:inkscape="http://www.inkscape.org/namespaces/inkscape"
   id="emoji"
   viewBox="0 0 64.000298 64"
   version="1.1"
   sodipodi:docname="favicon.svg"
   width="64.000298"
   height="64"
   inkscape:version="0.92.2 5c3e80d, 2017-08-06"
   inkscape:export-filename="/home/dmpop/favicon.png"
   inkscape:export-xdpi="768"
   inkscape:export-ydpi="768">
  <metadata
     id="metadata41">
    <rdf:RDF>
      <cc:Work
         rdf:about="">
        <dc:format>image/svg+xml</dc:format>
        <dc:type
           rdf:resource="http://purl.org/dc/dcmitype/StillImage" />
        <dc:title></dc:title>
      </cc:Work>
    </rdf:RDF>
  </metadata>
  <defs
     id="defs39" />
  <sodipodi:namedview
     pagecolor="#ffffff"
     bordercolor="#666666"
     borderopacity="1"
     objecttolerance="10"
     gridtolerance="10"
     guidetolerance="10"
     inkscape:pageopacity="0"
     inkscape:pageshadow="2"
     inkscape:window-width="1366"
     inkscape:window-height="703"
     id="namedview37"
     showgrid="false"
     fit-margin-top="0"
     fit-margin-left="0"
     fit-margin-right="0"
     fit-margin-bottom="0"
     inkscape:zoom="3.2777778"
     inkscape:cx="32"
     inkscape:cy="32.078999"
     inkscape:window-x="0"
     inkscape:window-y="0"
     inkscape:window-maximized="1"
     inkscape:current-layer="emoji" />
  <g
     id="color"
     transform="translate(-4,-4.079)">
    <rect
       x="4.0002999"
       y="47.292198"
       width="64"
       height="20.7868"
       id="rect2"
       style="fill:#61b2e4" />
    <rect
       x="4.0002999"
       y="4.079"
       width="64"
       height="43.2132"
       id="rect4"
       style="fill:#e27022" />
    <polyline
       points="68 4.079 60 4.079 44 35.079 48 38.079 65 18.079 68 14.848"
       id="polyline6"
       style="fill:#f4aa41" />
    <polygon
       points="24.55,38.145 28.3,34.837 9,4.079 4,4.079 4,17.641 6.019,19.554 "
       id="polygon8"
       style="fill:#f4aa41" />
    <polyline
       points="30.879 4.079 33.348 32.454 38.331 32.866 42.08 6.886 42.566 4.079"
       id="polyline10"
       style="fill:#f4aa41" />
    <polyline
       points="68 34.719 46.068 41.718 46.775 46.668 68 44.947"
       id="polyline12"
       style="fill:#f4aa41" />
    <polyline
       points="4 34.899 25.933 41.898 25.226 46.848 4 45.127"
       id="polyline14"
       style="fill:#f4aa41" />
    <path
       d="m 21.48,47.2923 a 15.6793,15.6793 0 1 1 29.04,6e-4"
       id="path16"
       inkscape:connector-curvature="0"
       style="fill:#fcea2b" />
    <polygon
       points="49.932,47.292 55.019,37.008 58.641,33.433 59.643,27.783 60.927,24.904 67.964,24.049 68,47.292 "
       id="polygon18"
       style="fill:#ffffff" />
    <polygon
       points="21.48,47.292 18.327,36.079 14.848,32.091 14.967,28.846 11.073,24.904 4.037,24.049 4,47.292 "
       id="polygon20"
       style="fill:#ffffff" />
  </g>
  <g
     id="line"
     transform="translate(-4,-4.079)">
    <path
       stroke-miterlimit="10"
       d="m 8.48,32.188 a 7.7528,7.7528 0 0 1 9.8478,4.82"
       id="path23"
       inkscape:connector-curvature="0"
       style="fill:none;stroke:#000000;stroke-width:2;stroke-linecap:round;stroke-miterlimit:10" />
    <path
       stroke-miterlimit="10"
       d="m 5,24.0262 a 7.7528,7.7528 0 0 1 9.8478,4.82"
       id="path25"
       inkscape:connector-curvature="0"
       style="fill:none;stroke:#000000;stroke-width:2;stroke-linecap:round;stroke-miterlimit:10" />
    <path
       stroke-miterlimit="10"
       d="m 54.4754,40.5834 a 7.7527,7.7527 0 0 1 8.3317,-7.127"
       id="path27"
       inkscape:connector-curvature="0"
       style="fill:none;stroke:#000000;stroke-width:2;stroke-linecap:round;stroke-miterlimit:10" />
    <path
       stroke-miterlimit="10"
       d="M 58.6412,30.7561 A 7.7529,7.7529 0 0 1 66.9729,23.629"
       id="path29"
       inkscape:connector-curvature="0"
       style="fill:none;stroke:#000000;stroke-width:2;stroke-linecap:round;stroke-miterlimit:10" />
    <line
       x1="5.1238999"
       x2="66.876701"
       y1="47.2929"
       y2="47.2929"
       stroke-miterlimit="10"
       id="line31"
       style="fill:none;stroke:#000000;stroke-width:2;stroke-linecap:round;stroke-miterlimit:10" />
    <path
       stroke-miterlimit="10"
       d="m 20.49,43.9627 a 15.6793,15.6793 0 1 1 30.7746,0.2534"
       id="path33"
       inkscape:connector-curvature="0"
       style="fill:none;stroke:#000000;stroke-width:2;stroke-linecap:round;stroke-miterlimit:10" />
  </g>
</svg>
